<svg xmlns="http://www.w3.org/2000/svg" viewBox="0 0 568.17 623.01"><defs><style>.cls-1{fill:#e4dbc6;}.cls-2{fill:#fff;}.cls-3,.cls-4,.cls-5,.cls-7{fill:none;stroke-miterlimit:10;}.cls-3{stroke:#b21917;stroke-width:40px;}.cls-4,.cls-5{stroke:#000;}.cls-4{stroke-width:3px;}.cls-5{stroke-width:8px;}.cls-14,.cls-6{fill:#104721;}.cls-7{stroke:#104721;stroke-width:16px;}.cls-8{fill:#767670;}.cls-11,.cls-13,.cls-15,.cls-9{fill:#c41617;}.cls-10,.cls-11{font-size:24px;}.cls-10{fill:#7a7a7a;letter-spacing:0.15em;}.cls-10,.cls-11,.cls-12,.cls-13{font-family:Hamston-Regular, Hamston;}.cls-11{letter-spacing:0.15em;}.cls-12,.cls-13{font-size:27.7px;letter-spacing:0.15em;}.cls-12{fill:#878787;}.cls-14{font-size:44.98px;}.cls-14,.cls-15{font-family:Krungthep;}.cls-15{font-size:22.91px;letter-spacing:0.01em;}</style></defs><g id="Layer_2" data-name="Layer 2"><g id="Layer_1-2" data-name="Layer 1"><ellipse class="cls-1" cx="284.87" cy="313.5" rx="207.56" ry="268.57"/><polygon class="cls-2" points="91.74 225.97 117.98 211.27 151.18 188.56 187.6 221.04 239.83 178.87 249.78 186.75 306.77 133.47 373.51 194.71 399.59 187.15 407.36 192.43 425.62 182.14 509.91 239.19 91.06 231.06 75.29 230.69 91.74 225.97"/><polygon class="cls-2" points="86.79 244.51 115.09 269.01 150.93 306.75 189.5 253.88 245.97 323.84 256.52 311.02 318.25 399.32 388.89 299.58 416.91 312.35 425.15 303.78 444.84 320.93 534.34 228.31 86 236.14 69.13 236.53 86.79 244.51"/><ellipse class="cls-3" cx="284.74" cy="311.51" rx="233.44" ry="291.51"/><ellipse class="cls-4" cx="286.18" cy="314.56" rx="225.9" ry="291.08"/><ellipse class="cls-5" cx="285.31" cy="312.03" rx="211.22" ry="271.71"/><path class="cls-6" d="M259.81,273.58l1.09-27.26,1.46-7.27,1.45-12.72s-.73-6.18-2.18-6.18-5.09-4.73-5.09-4.73l-3.63.37s-5.46,0-5.46-1.09-10.54-6.91-10.54-6.91l-2.18-5.09-.95-3.77-3.64-5.08-.33-4a4.63,4.63,0,0,1,3.57-3.9c3.17-.6,10.18,1.25,10.18,1.25s5.22,1.13,5.55,1.79,4.23,2.9,4.23,2.9l-6.81-6.7-15.4-11.5a18.6,18.6,0,0,1-1.32-3.84,18.31,18.31,0,0,0-1.65-4.16l-4.46-8-1.13-5.23s-2.62-3.05-2.8-2.86-2.73-1.34-3.09-.43l-2.79.18-10.78,5.15-.91,1.27-3.33-2.9,1-1.94s.12-2.24-.12-2.12-1.45-1.15-1.45-1.15l1.15-.91,2.06,2.54,3.63.12,2.06-1.15,3-2.24,4.54-1.57a4.37,4.37,0,0,1,2.43-.49l4.72-.12.43-5.33s-1.91-2.24-2.25-2l-3.76-1.91-10.22-.9a24,24,0,0,1-3.38-.72c0-.17-8.77-6.16-8.17-7.06s8.68,2.78,8.68,2.78l7.77.51,5,.57,4.82,1.3,4.1,2.11s.34-7.2-.08-7.2-1.65-6.19-1.65-6.19l-4.2-3.87,2.75-1.45s1.11-1,.92-1.15a17.18,17.18,0,0,1-.27-3l3.25.72s3-1.7,2.51-2.08c0,0,4.11-7.1,3.77-7.17S236.46,88,236.46,88l.09,7.44-.94,12L235,115.6s4.36-2.88,4-3.23,5.59-5.55,5.59-5.55l-.29,3-3.08,6L237,125.25l-5.76,10.31.39,10.08s1.79,5.93,2,6,5.2,1.34,5.7.57,4.28-2.14,4.28-3.79c0,0,8.44-9.12,7.87-9.93s9.46-17.5,8.85-17.73-.41,4.89-.41,4.89-3.1,9.4-2.67,9.55-4.7,9.84-4.7,9.84L245,156l-4.75,3.93.05,3.73s4.29,8.55,5.84,7.73,10.23,9.5,10.23,9.5l5,1.55.68-.29,3.1-19.58s3.08-6.64,2.6-6.83,1.14-8.36,1.14-8.36l1.4,10.22,1.77,14-1.31,7.15L269.24,190l-.58,3.95,2.71,3.68,1.5-.17,1.94-3,5.38-.82,7.95.14,8.77,2.57,4.7-9.69s-4.36-18.63-4.18-19.08-1.63-10.72-1.63-10.72l-.46-7.36-4.63-8.91,4.72,4.54s1.55-4.54,1.09-4.72.73,5.72.73,5.72l1.53,6.87,2.18,3.13s3.56,2.76,2.83,3.92l1.67,13.67.51,2.33s3.71,4.14,4.8,3.19,3.34-3.7,3-3.78,12-7.77,12-7.77L335.92,158l-.51-6.4s-4.21-10.69-3.7-11.34-5.53-19.48-5.53-19.48-2.91-12.58-3.49-12.51-3.12-11-4.36-10.75-3.13-5.89-3.78-5.53S322,98.61,322,98.61s5.89,7.48,5.74,7.77.87,1.53.87,1.53l.44-7.12s-1.09-2-.73-2.33,3.06,3.63,3.06,3.63l2.18,5.53s2,6.47,1.81,6.91,7.85,6.9,8.22,6.54.87-10.47.87-10.47-2-6.18-1.74-6.54-5.17-11.12-5.46-11-.36-2-.36-2l5.38,6,8.25,12.16,2,3.84-.21,6.54s.31,2.08,1,1.77a4.87,4.87,0,0,1,2.28.1s.83.83.21,1.15-2.49,1.14-2.49,1.14-2.6,5.09-1.87,5.5,2.91,4.57,2.6,5,14.74.31,14.74.31,5.61-.83,5.61-1.66,5.4-3.74,5.4-3.74,2.8,1.87,1.45,3.53-9.13,6.23-9.13,6.23-4.16,1-4.47.62-4.57-1-4.57-1l-8.72.52V142s3.74,1.46,4.26,1,5.91.93,5.91.93l3.85,5.51,4.36.62-1.25,2.18h-5.4s-4.67-4-4.46-4.36-2.18-1.45-2.18-1.45l-4.05.52-7.9,12.56-13.19,13.61-18.58,14.43,1.66.83,6.75-2.28,9-3.85s4.47-2,4.88-1.76,1.87,1,1.46,1.66-2.6,5.5-2.6,5.5l-.21,2.5-4.36,4.72s-3.32,6.86-3.22,7.17-6.64,8.41-6.64,8.41-4.68,3.74-5.2,3.11-8.93.63-8.93.63l-4.1,6.95s-1.45,4.68-.83,5.3,7.79,16.82,7.79,16.82,10.33,23.42,8.88,24.51"/><path class="cls-1" d="M547.9,406c-176.4,76.2-352.8-76.2-529.2,0L7.9,262c183.6-79.32,367.2,79.32,550.8,0Z"/><path class="cls-7" d="M548.4,405.45c-176.4,76.2-352.8-76.21-529.2,0l-10.8-144c183.6-79.32,367.2,79.31,550.8,0Z"/><path class="cls-1" d="M547.9,406c-176.4,76.2-352.8-76.2-529.2,0L7.9,262c183.6-79.32,367.2,79.32,550.8,0Z"/><path class="cls-8" d="M117.07,365a28.71,28.71,0,0,0,1.43-5.34q3.51-27.65,7-55.29a16,16,0,0,0-.18-4.44,7.59,7.59,0,0,0-1.46-3.77,129.15,129.15,0,0,1,22-10.44A12.65,12.65,0,0,1,152,285a9.93,9.93,0,0,1,5.26,2.36,12.4,12.4,0,0,1,3.47,5.4,19.75,19.75,0,0,1,.73,8.39,33.57,33.57,0,0,1-2.16,9.09,28.34,28.34,0,0,1-5,8.09l-.69.81.55.59a14.9,14.9,0,0,1,3.26,6.3,24.58,24.58,0,0,1,.69,8.4c0,.22,0,.4,0,.54a28.17,28.17,0,0,1-5.85,14.66,29.51,29.51,0,0,1-7,6.77,34.93,34.93,0,0,1-7.7,4,136.33,136.33,0,0,0-23.34,11A37.74,37.74,0,0,0,117.07,365Zm16.08-41.37c1.4-1,3.09-2.12,5.06-3.42a55.51,55.51,0,0,0,5.83-4.44,31.93,31.93,0,0,0,5.05-5.49,13.33,13.33,0,0,0,2.54-6.54,7.61,7.61,0,0,0-.29-3.26,6.08,6.08,0,0,0-1.4-2.35,4.68,4.68,0,0,0-2.13-1.25,4.73,4.73,0,0,0-2.45,0q-5.13,1.82-10.25,4.14l-2.76,23.06Zm-3.6,29c.59-.26,1.17-.49,1.72-.7s1.14-.43,1.73-.67c1.41-.59,2.83-1.14,4.25-1.67a35.14,35.14,0,0,0,3.52-1.77,17.27,17.27,0,0,0,3.37-2.51,13.91,13.91,0,0,0,2.62-3.45,12.92,12.92,0,0,0,1.35-4.78,8.72,8.72,0,0,0-.31-3.57,7.53,7.53,0,0,0-1.52-2.73,6.14,6.14,0,0,0-2.27-1.62,4.05,4.05,0,0,0-2.69-.11l-.16.05c-1.58,1.06-3.19,2.08-4.81,3.07s-3.23,2-4.8,3.07l-.57.36-2.07,17.32Z"/><path class="cls-8" d="M173.17,352.92a19.79,19.79,0,0,0,2.68-5.1,19.45,19.45,0,0,0,1.29-4.89q2.24-27.37,4.49-54.76a17.85,17.85,0,0,0-.45-4.79,14.64,14.64,0,0,0-1.73-4.8,152.26,152.26,0,0,1,22-.06,15.61,15.61,0,0,1,6.22,1.81,17.68,17.68,0,0,1,5.47,4.54,22.31,22.31,0,0,1,3.76,7,24.17,24.17,0,0,1,1.13,9.05c-.25,4.82-1.32,8.66-3.24,11.54a18.92,18.92,0,0,1-7.86,6.65l-.57.26q2.93,12.81,6,25.76c.31,1.28.81,2.95,1.52,5a20.91,20.91,0,0,0,2.5,5.19c-4.75-.78-9.51-1.43-14.26-1.9a8.39,8.39,0,0,0,.76-2.53q.21-1.38.36-2.46c.05-.79.06-1.63,0-2.54a10.86,10.86,0,0,0-.37-2.59Q200.4,332.61,198,322l-.57.18c-1.35.27-2.69.53-4,.76s-2.71.52-4.1.86l-.57.1q-.69,9.42-1.39,18.84a18.28,18.28,0,0,0,.49,4.85,15.2,15.2,0,0,0,1.87,5A157.37,157.37,0,0,0,173.17,352.92Zm17.21-40.52c1.39-.33,3.05-.74,5-1.19a27,27,0,0,0,5.72-2A15.88,15.88,0,0,0,206,305.6a9,9,0,0,0,2.27-5.78,9.43,9.43,0,0,0-.45-3.52,11.35,11.35,0,0,0-1.53-3,9,9,0,0,0-2.23-2.21,6.23,6.23,0,0,0-2.49-1.07c-3.42-.24-6.83-.38-10.25-.42q-.84,11.46-1.69,22.93Z"/><path class="cls-8" d="M233.39,358.69a13,13,0,0,0,2.4-4.38c.64-1.82,1.11-3.31,1.42-4.48q6.45-26.34,12.44-52.66a17.77,17.77,0,0,0,.21-2.25,19.12,19.12,0,0,0-.22-3.34c-.09-.75-.21-1.57-.36-2.45a10.37,10.37,0,0,0-.75-2.44c6.62,1.69,13.23,3.53,19.85,5.43a7.36,7.36,0,0,0-.87,2,21.27,21.27,0,0,0-.48,2.22c-.11.78-.18,1.47-.22,2.08s-.05,1-.05,1.25a15.41,15.41,0,0,0,.13,2.23q5,29.36,10.38,58.92.41,2,1.24,5.2a22.64,22.64,0,0,0,2.22,5.61q-7.62-2.28-15.24-4.5a6,6,0,0,0,.88-2c.19-.79.35-1.49.47-2.12a18.51,18.51,0,0,0,.36-3.3,17.94,17.94,0,0,0-.14-2.34l-1.5-9.44c-5.69-.32-11.39-.6-17.11-.79-.34,1.6-.67,3.19-1,4.78a13.73,13.73,0,0,0-.22,2.14c0,.21,0,.63,0,1.26s.05,1.38.14,2.28c.09.68.23,1.47.43,2.36a13.7,13.7,0,0,0,.75,2.44C243.5,361.08,238.45,359.82,233.39,358.69Zm30.4-22.34q-2.87-17-5.58-33.93-3.55,16.68-7.31,33.33C255.21,335.9,259.5,336.11,263.79,336.35Z"/><path class="cls-8" d="M297.75,376.64a11.64,11.64,0,0,0,2.15-4.44,17,17,0,0,0,.78-4.73q-.44-28.11-.85-56.23A24.54,24.54,0,0,0,299,306a23.3,23.3,0,0,0-2.18-5.67c5.17,1.46,10.33,2.89,15.5,4.22a12.77,12.77,0,0,0-2,4.55,18.38,18.38,0,0,0-.69,4.77q.63,27.36,1.25,54.73,6.67,1.78,13.34,3.38a7.72,7.72,0,0,0,3.61-.27,7.55,7.55,0,0,0,3.7-2.17q.3,8,.62,15.92C320.66,383.05,309.2,380,297.75,376.64Z"/><path class="cls-8" d="M349.14,388.63a13.39,13.39,0,0,0,1.95-4.82,18.31,18.31,0,0,0,.58-4.91L348.61,322a22.84,22.84,0,0,0-1.07-5.13,22.06,22.06,0,0,0-2.37-5.44c5.16.75,10.33,1.32,15.49,1.65a15.65,15.65,0,0,0-1.78,5,20.56,20.56,0,0,0-.49,5l3.39,55.3q6.68.57,13.34.65a8.05,8.05,0,0,0,3.57-1.13,9.83,9.83,0,0,0,3.58-3.12l1.23,16A185.39,185.39,0,0,1,349.14,388.63Z"/><path class="cls-8" d="M400.52,389.17a18.19,18.19,0,0,0,1.77-5.41c.38-2.12.64-3.83.8-5.16q2.87-29.53,5.26-59.49a20.35,20.35,0,0,0-.08-2.39,17.32,17.32,0,0,0-.65-3.28c-.17-.71-.4-1.48-.66-2.29a7.56,7.56,0,0,0-1-2.07,124.34,124.34,0,0,0,19.84-7.16,12.39,12.39,0,0,0-.57,2.67,25.29,25.29,0,0,0-.18,2.6c0,.86,0,1.62.05,2.26s.09,1.08.11,1.3a15.26,15.26,0,0,0,.41,2.16q8.55,26,17.56,51.29.63,1.67,1.86,4.19a9.62,9.62,0,0,0,2.85,3.71,138.69,138.69,0,0,1-15.24,7.77,10.85,10.85,0,0,0,.59-2.66c.09-.94.15-1.76.18-2.48a20.22,20.22,0,0,0-.08-3.6,14.76,14.76,0,0,0-.43-2.27c-.89-2.81-1.77-5.62-2.66-8.44a160.48,160.48,0,0,1-16.6,10l-.36,5.39a15.64,15.64,0,0,0,.06,2.28c0,.23.08.65.17,1.28s.23,1.37.43,2.24c.18.64.42,1.37.72,2.16a10,10,0,0,0,1,2.07A130,130,0,0,1,400.52,389.17ZM427,350q-4.93-15.18-9.73-30.59-1.31,19.15-2.78,38.16C418.7,355.26,422.87,352.75,427,350Z"/><path class="cls-9" d="M127.07,364a28.71,28.71,0,0,0,1.43-5.34q3.51-27.65,7-55.29a16,16,0,0,0-.18-4.44,7.59,7.59,0,0,0-1.46-3.77,129.15,129.15,0,0,1,22-10.44A12.65,12.65,0,0,1,162,284a9.85,9.85,0,0,1,5.26,2.36,12.4,12.4,0,0,1,3.47,5.4,19.75,19.75,0,0,1,.73,8.39,33.57,33.57,0,0,1-2.16,9.09,28.34,28.34,0,0,1-5,8.09l-.69.81.55.59a14.9,14.9,0,0,1,3.26,6.3,24.58,24.58,0,0,1,.69,8.4c0,.22,0,.4,0,.54a28.17,28.17,0,0,1-5.85,14.66,29.51,29.51,0,0,1-7,6.77,34.93,34.93,0,0,1-7.7,4,136.33,136.33,0,0,0-23.34,11A37.74,37.74,0,0,0,127.07,364Zm16.08-41.37c1.4-1,3.09-2.12,5.06-3.42a55.51,55.51,0,0,0,5.83-4.44,32.3,32.3,0,0,0,5.05-5.49,13.33,13.33,0,0,0,2.54-6.54,7.61,7.61,0,0,0-.29-3.26,6.08,6.08,0,0,0-1.4-2.35,4.68,4.68,0,0,0-2.13-1.25,4.73,4.73,0,0,0-2.45,0q-5.13,1.82-10.25,4.14l-2.76,23.07Zm-3.6,29c.59-.26,1.17-.49,1.72-.7s1.13-.43,1.73-.67c1.41-.59,2.83-1.14,4.25-1.67a35.14,35.14,0,0,0,3.52-1.77,17.27,17.27,0,0,0,3.37-2.51,13.91,13.91,0,0,0,2.62-3.45,12.92,12.92,0,0,0,1.35-4.78,8.72,8.72,0,0,0-.31-3.57,7.53,7.53,0,0,0-1.52-2.73,6.14,6.14,0,0,0-2.27-1.62,4.05,4.05,0,0,0-2.69-.11l-.16.05c-1.58,1.06-3.19,2.08-4.81,3.07s-3.23,2-4.8,3.07l-.57.36-2.07,17.32Z"/><path class="cls-9" d="M183.17,351.92a19.79,19.79,0,0,0,2.68-5.1,19.45,19.45,0,0,0,1.29-4.89q2.24-27.37,4.49-54.76a17.85,17.85,0,0,0-.45-4.79,14.64,14.64,0,0,0-1.73-4.8,152.26,152.26,0,0,1,22-.06,15.61,15.61,0,0,1,6.22,1.81,17.68,17.68,0,0,1,5.47,4.54,22.31,22.31,0,0,1,3.76,7,24.17,24.17,0,0,1,1.13,9.05c-.25,4.82-1.32,8.66-3.24,11.54a18.92,18.92,0,0,1-7.86,6.65l-.57.26q2.93,12.81,6,25.76c.31,1.28.81,2.95,1.52,5a20.91,20.91,0,0,0,2.5,5.19c-4.75-.78-9.51-1.43-14.26-1.9a8.39,8.39,0,0,0,.76-2.53q.21-1.38.36-2.46c.05-.79.06-1.63,0-2.54a10.86,10.86,0,0,0-.37-2.59Q210.4,331.61,208,321l-.57.18c-1.35.27-2.69.53-4,.76s-2.71.52-4.1.86l-.57.1q-.69,9.42-1.39,18.84a18.28,18.28,0,0,0,.49,4.85,15.2,15.2,0,0,0,1.87,5A157.37,157.37,0,0,0,183.17,351.92Zm17.21-40.52c1.39-.33,3.05-.74,5-1.19a27,27,0,0,0,5.72-2A15.88,15.88,0,0,0,216,304.6a9,9,0,0,0,2.27-5.78,9.43,9.43,0,0,0-.45-3.52,11.35,11.35,0,0,0-1.53-3,9,9,0,0,0-2.23-2.21,6.23,6.23,0,0,0-2.49-1.07c-3.42-.24-6.83-.38-10.25-.42q-.84,11.46-1.69,22.93Z"/><path class="cls-9" d="M243.39,357.69a13,13,0,0,0,2.4-4.38c.64-1.82,1.11-3.31,1.42-4.48q6.45-26.34,12.44-52.66a17.77,17.77,0,0,0,.21-2.25,19.12,19.12,0,0,0-.22-3.34c-.09-.75-.21-1.57-.36-2.45a10.37,10.37,0,0,0-.75-2.44c6.62,1.69,13.23,3.53,19.85,5.43a7.36,7.36,0,0,0-.87,2,21.27,21.27,0,0,0-.48,2.22c-.11.78-.18,1.47-.22,2.08s-.05,1-.05,1.25a15.41,15.41,0,0,0,.13,2.23q5,29.36,10.38,58.92.41,2,1.24,5.2a22.64,22.64,0,0,0,2.22,5.61q-7.62-2.28-15.24-4.5a6,6,0,0,0,.88-2c.19-.79.35-1.49.47-2.12a18.51,18.51,0,0,0,.36-3.3,17.94,17.94,0,0,0-.14-2.34l-1.5-9.44c-5.69-.32-11.39-.6-17.11-.79-.34,1.6-.67,3.19-1,4.78a13.73,13.73,0,0,0-.22,2.14c0,.21,0,.63,0,1.26s0,1.38.14,2.28c.09.68.23,1.47.43,2.36a13.7,13.7,0,0,0,.75,2.44C253.5,360.08,248.45,358.82,243.39,357.69Zm30.4-22.34q-2.87-17-5.58-33.93-3.56,16.68-7.31,33.33C265.21,334.9,269.5,335.11,273.79,335.35Z"/><path class="cls-9" d="M307.75,375.64a11.64,11.64,0,0,0,2.15-4.44,17,17,0,0,0,.78-4.73q-.44-28.11-.85-56.23A24.54,24.54,0,0,0,309,305a23.3,23.3,0,0,0-2.18-5.67c5.17,1.46,10.33,2.89,15.5,4.22a12.77,12.77,0,0,0-2,4.55,18.38,18.38,0,0,0-.69,4.77q.63,27.36,1.25,54.73,6.67,1.78,13.34,3.38a7.72,7.72,0,0,0,3.61-.27,7.55,7.55,0,0,0,3.7-2.17q.3,8,.62,15.92C330.66,382.05,319.2,379,307.75,375.64Z"/><path class="cls-9" d="M359.14,387.63a13.39,13.39,0,0,0,1.95-4.82,18.31,18.31,0,0,0,.58-4.91L358.61,321a22.84,22.84,0,0,0-1.07-5.13,22.06,22.06,0,0,0-2.37-5.44c5.16.75,10.33,1.32,15.49,1.65a15.65,15.65,0,0,0-1.78,5,20.56,20.56,0,0,0-.49,5l3.39,55.3q6.68.57,13.34.65a8.05,8.05,0,0,0,3.57-1.13,9.83,9.83,0,0,0,3.58-3.12l1.23,16A185.39,185.39,0,0,1,359.14,387.63Z"/><path class="cls-9" d="M410.52,388.17a18.19,18.19,0,0,0,1.77-5.41c.38-2.12.64-3.83.8-5.16q2.87-29.53,5.26-59.49a20.35,20.35,0,0,0-.08-2.39,17.32,17.32,0,0,0-.65-3.28c-.17-.71-.4-1.48-.66-2.29a7.56,7.56,0,0,0-1-2.07,124.34,124.34,0,0,0,19.84-7.16,12.39,12.39,0,0,0-.57,2.67,25.29,25.29,0,0,0-.18,2.6c0,.86,0,1.62.05,2.26s.09,1.08.11,1.3a15.26,15.26,0,0,0,.41,2.16q8.55,26,17.56,51.29.63,1.67,1.86,4.19a9.62,9.62,0,0,0,2.85,3.71,138.69,138.69,0,0,1-15.24,7.77,10.85,10.85,0,0,0,.59-2.66c.09-.94.15-1.76.18-2.48a20.22,20.22,0,0,0-.08-3.6,14.76,14.76,0,0,0-.43-2.27c-.89-2.81-1.77-5.62-2.66-8.44a160.48,160.48,0,0,1-16.6,10l-.36,5.39a15.64,15.64,0,0,0,.06,2.28c0,.23.08.65.17,1.28s.23,1.37.43,2.24c.18.64.42,1.37.72,2.16a10,10,0,0,0,1,2.07A130,130,0,0,1,410.52,388.17ZM437,349q-4.93-15.18-9.73-30.59-1.31,19.15-2.78,38.16C428.7,354.26,432.87,351.75,437,349Z"/><path class="cls-2" d="M122.71,353.22a29.59,29.59,0,0,0,1.43-5.35q3.51-27.64,7-55.29a16,16,0,0,0-.19-4.43,7.41,7.41,0,0,0-1.46-3.78,129.6,129.6,0,0,1,22-10.44,12.77,12.77,0,0,1,6.11-.73,9.93,9.93,0,0,1,5.25,2.36,12.32,12.32,0,0,1,3.48,5.4,19.6,19.6,0,0,1,.72,8.39,33.35,33.35,0,0,1-2.15,9.1,28.48,28.48,0,0,1-5,8.09l-.69.8.55.6a14.8,14.8,0,0,1,3.26,6.29,24.62,24.62,0,0,1,.69,8.41c0,.21,0,.39-.05.53a28.13,28.13,0,0,1-5.85,14.66,29.51,29.51,0,0,1-7,6.77,34.93,34.93,0,0,1-7.7,3.95,136.33,136.33,0,0,0-23.34,11A37.62,37.62,0,0,0,122.71,353.22Zm16.08-41.38c1.4-1,3.09-2.12,5.06-3.42a55.51,55.51,0,0,0,5.83-4.44,31.93,31.93,0,0,0,5-5.49,13.33,13.33,0,0,0,2.54-6.54,7.63,7.63,0,0,0-.29-3.26,6.08,6.08,0,0,0-1.4-2.35A4.73,4.73,0,0,0,151,285.1q-5.13,1.81-10.25,4.15L138,312.31Zm-3.6,29c.59-.27,1.17-.5,1.72-.71s1.13-.43,1.72-.67c1.42-.59,2.84-1.14,4.26-1.67a36.24,36.24,0,0,0,3.52-1.77,17.27,17.27,0,0,0,3.37-2.51,13.46,13.46,0,0,0,2.61-3.45,12.73,12.73,0,0,0,1.36-4.78,8.72,8.72,0,0,0-.31-3.57,7.53,7.53,0,0,0-1.52-2.73,6.25,6.25,0,0,0-2.27-1.62,4.05,4.05,0,0,0-2.69-.11l-.16.06c-1.58,1-3.19,2.07-4.81,3.07s-3.23,2-4.8,3.06l-.57.36-2.07,17.32Z"/><path class="cls-2" d="M178.81,341.12a19.88,19.88,0,0,0,2.68-5.09,19.45,19.45,0,0,0,1.28-4.89l4.5-54.77a17.85,17.85,0,0,0-.45-4.79,14.64,14.64,0,0,0-1.73-4.8,153.71,153.71,0,0,1,22-.06,15.61,15.61,0,0,1,6.22,1.81,17.68,17.68,0,0,1,5.47,4.54,22.31,22.31,0,0,1,3.76,7,24.2,24.2,0,0,1,1.13,9.05c-.25,4.83-1.32,8.66-3.24,11.54a18.92,18.92,0,0,1-7.86,6.65l-.57.26q2.92,12.81,6,25.76.45,1.92,1.52,5a20.91,20.91,0,0,0,2.5,5.19c-4.75-.78-9.51-1.43-14.26-1.9a8.69,8.69,0,0,0,.76-2.53c.14-.92.26-1.74.36-2.45s.06-1.64,0-2.55a10.86,10.86,0,0,0-.37-2.59q-2.49-10.71-4.88-21.31l-.57.18c-1.35.28-2.69.53-4,.76s-2.71.52-4.11.86l-.56.1q-.69,9.42-1.39,18.84a18.39,18.39,0,0,0,.49,4.86,15.14,15.14,0,0,0,1.87,5A160.12,160.12,0,0,0,178.81,341.12ZM196,300.6c1.38-.33,3-.74,5-1.19a27,27,0,0,0,5.72-2,16,16,0,0,0,4.86-3.57,9,9,0,0,0,2.27-5.79,9.23,9.23,0,0,0-.46-3.52,11,11,0,0,0-1.52-3,9,9,0,0,0-2.23-2.21,6.12,6.12,0,0,0-2.49-1.06c-3.42-.25-6.83-.39-10.25-.43q-.84,11.46-1.69,22.93Z"/><path class="cls-2" d="M239,346.89a12.87,12.87,0,0,0,2.4-4.38c.64-1.82,1.11-3.31,1.42-4.48q6.45-26.32,12.44-52.66a17.77,17.77,0,0,0,.21-2.25,19.12,19.12,0,0,0-.22-3.34c-.09-.75-.21-1.57-.36-2.45a10.14,10.14,0,0,0-.75-2.43c6.62,1.68,13.23,3.52,19.85,5.42a7.5,7.5,0,0,0-.87,2,22,22,0,0,0-.48,2.23c-.11.77-.19,1.46-.22,2.07s-.05,1-.05,1.25a15.41,15.41,0,0,0,.13,2.23q5,29.36,10.38,58.92c.26,1.33.68,3.06,1.24,5.2a22.49,22.49,0,0,0,2.22,5.61q-7.62-2.26-15.24-4.5a6.06,6.06,0,0,0,.88-2c.19-.79.35-1.49.47-2.12a17.62,17.62,0,0,0,.35-3.3,16.36,16.36,0,0,0-.13-2.34q-.76-4.72-1.5-9.43c-5.69-.33-11.39-.61-17.11-.79-.34,1.59-.67,3.18-1,4.77a13.73,13.73,0,0,0-.22,2.14c0,.21,0,.64,0,1.26s0,1.38.14,2.28c.09.68.23,1.47.43,2.36a13.45,13.45,0,0,0,.75,2.44Q246.61,348.61,239,346.89Zm30.4-22.34q-2.87-17-5.58-33.93Q260.3,307.3,256.54,324C260.85,324.11,265.14,324.32,269.43,324.55Z"/><path class="cls-2" d="M303.39,364.84a11.64,11.64,0,0,0,2.15-4.44,17,17,0,0,0,.78-4.73q-.44-28.11-.85-56.23a24.54,24.54,0,0,0-.88-5.2,23.71,23.71,0,0,0-2.18-5.67c5.17,1.47,10.33,2.89,15.5,4.22a12.86,12.86,0,0,0-2,4.55,18.38,18.38,0,0,0-.69,4.77q.63,27.38,1.25,54.73c4.45,1.19,8.89,2.33,13.34,3.38a7.72,7.72,0,0,0,3.61-.27,7.55,7.55,0,0,0,3.7-2.17q.3,8,.62,15.92C326.3,371.25,314.84,368.15,303.39,364.84Z"/><path class="cls-2" d="M354.78,376.83a13.57,13.57,0,0,0,2-4.82,18.31,18.31,0,0,0,.58-4.91l-3.06-56.89a22.8,22.8,0,0,0-1.07-5.14,22.06,22.06,0,0,0-2.37-5.44c5.16.75,10.33,1.32,15.49,1.66a15.48,15.48,0,0,0-1.78,5,20.44,20.44,0,0,0-.49,5l3.39,55.3q6.68.57,13.34.65a8.05,8.05,0,0,0,3.57-1.13,9.83,9.83,0,0,0,3.58-3.12l1.23,16A185.39,185.39,0,0,1,354.78,376.83Z"/><path class="cls-2" d="M406.16,377.37a18.19,18.19,0,0,0,1.77-5.41c.38-2.11.64-3.83.8-5.15q2.86-29.55,5.26-59.5a20.35,20.35,0,0,0-.08-2.39,17.06,17.06,0,0,0-.65-3.27c-.18-.72-.4-1.49-.66-2.3a7.56,7.56,0,0,0-1-2.07,124.34,124.34,0,0,0,19.84-7.16,12.39,12.39,0,0,0-.57,2.67,25.48,25.48,0,0,0-.18,2.6c0,.87,0,1.62,0,2.26s.09,1.08.11,1.3a15,15,0,0,0,.41,2.16q8.55,26,17.56,51.29.63,1.67,1.85,4.19a9.73,9.73,0,0,0,2.86,3.71,138.69,138.69,0,0,1-15.24,7.77,10.85,10.85,0,0,0,.59-2.66c.09-.93.15-1.76.18-2.48a20.24,20.24,0,0,0-.08-3.6,14.76,14.76,0,0,0-.43-2.27q-1.33-4.21-2.66-8.43a162.13,162.13,0,0,1-16.6,10l-.36,5.39a15.64,15.64,0,0,0,.06,2.28c0,.23.08.66.17,1.28s.23,1.37.43,2.24c.18.64.42,1.37.72,2.16a9.84,9.84,0,0,0,1,2.08A132,132,0,0,1,406.16,377.37Zm26.51-39.2q-4.94-15.18-9.73-30.59-1.31,19.16-2.78,38.16C424.34,343.46,428.51,341,432.67,338.17Z"/><text class="cls-10" transform="translate(35.3 322.86) scale(0.72 1)">ESTD</text><text class="cls-11" transform="translate(38.3 322) scale(0.72 1)">ESTD</text><text class="cls-12" transform="translate(488.3 345.68) scale(0.72 1)">2017</text><text class="cls-13" transform="translate(486.47 345.68) scale(0.72 1)">2017</text><text class="cls-14" transform="translate(207.32 550.45) rotate(22.65) scale(0.72 1)">F</text><text class="cls-14" transform="translate(227.25 558.67) rotate(15.75) scale(0.72 1)">O</text><text class="cls-14" transform="matrix(0.71, 0.1, -0.15, 0.99, 250.73, 565.1)">R</text><text class="cls-14" transform="translate(274.11 568.14) rotate(3.27) scale(0.72 1)"> </text><text class="cls-14" transform="translate(283.25 568.63) rotate(0.48) scale(0.72 1)"> </text><text class="cls-14" transform="translate(293.91 569.29) rotate(-6.45) scale(0.72 1)">M</text><text class="cls-14" transform="matrix(0.69, -0.18, 0.26, 0.97, 329.13, 564.5)">E</text><text class="cls-14" transform="translate(350.07 558.87) rotate(-22.39) scale(0.72 1)">N</text><text class="cls-15" transform="translate(244.64 75.99) scale(0.72 1)">ORIGINAL</text><path class="cls-6" d="M178.53,477.37l20.34-27,8.6-.32a1.6,1.6,0,0,1,1.87,1.69,7.29,7.29,0,0,1-1.45,4.24l-1,1.54a14.92,14.92,0,0,1-3.85,4.22,11,11,0,0,1-4.8,1.94c1.59,0,2.38.56,2.4,1.77a8,8,0,0,1-1.5,4.22l-1,1.54a14.5,14.5,0,0,1-4.27,4.28,9.12,9.12,0,0,1-4.86,1.81Zm16-15.12,2.37-.05a4.35,4.35,0,0,0,2.28-.94,8,8,0,0,0,2.14-2.15l2.06-3a3.6,3.6,0,0,0,.77-2.11.8.8,0,0,0-.95-.83l-2.21.07Zm-8.6,12,2.58,0a4.72,4.72,0,0,0,2.43-.91,7.79,7.79,0,0,0,2.19-2.12l2.05-3c1.37-2,1.24-3-.37-3l-2.42.05Z"/><path class="cls-6" d="M220.61,449.64l4.32-.1a1.94,1.94,0,0,1,2.11,1.77,6.9,6.9,0,0,1-.84,4.34q-3.78,7.75-7.55,15.52a11.9,11.9,0,0,1-3.65,4.35,7.81,7.81,0,0,1-4.62,1.8l-5.27,0a2.41,2.41,0,0,1-2.64-1.82c-.32-1.2,0-2.63,1-4.31q4.59-7.65,9.16-15.3a15.81,15.81,0,0,1,3.86-4.34A7.36,7.36,0,0,1,220.61,449.64Zm-3.44,6.14-8.62,15.37a2.89,2.89,0,0,0-.45,2.15,1.2,1.2,0,0,0,1.32.91,3.92,3.92,0,0,0,2.31-.9,6.28,6.28,0,0,0,1.88-2.15l8.09-15.45a3.32,3.32,0,0,0,.47-2.15,1,1,0,0,0-1.08-.88,3.6,3.6,0,0,0-2.06.93A7.28,7.28,0,0,0,217.17,455.78Z"/><path class="cls-6" d="M221.19,477.43q6.3-14,12.58-28.06c2.87,0,5.74-.09,8.61-.12a2.32,2.32,0,0,1,2.37,1.83,6.9,6.9,0,0,1-.23,4.44l-5.41,15.84a9.75,9.75,0,0,1-3,4.42,6.64,6.64,0,0,1-4.36,1.81Zm6.55-3.07,2.58,0a3.36,3.36,0,0,0,2.18-.9,5.14,5.14,0,0,0,1.58-2.19q3-7.87,5.93-15.76a3.28,3.28,0,0,0,.17-2.21,1.16,1.16,0,0,0-1.2-.9l-2.21,0Z"/><path class="cls-6" d="M247.77,477.91l3.45-12.81c-3.1-.52-4.05-2.65-2.9-6.4q1.45-4.77,2.9-9.54l4.29,0-2.58,9.6A3.25,3.25,0,0,0,253,461a1.47,1.47,0,0,0,1.42,1,2.62,2.62,0,0,0,1.9-.94,4.82,4.82,0,0,0,1.23-2.26c.75-3.22,1.5-6.43,2.26-9.65l4.29,0c-.65,3.23-1.29,6.46-1.94,9.7-.75,3.8-2.78,5.94-6.12,6.39q-1.5,6.43-3,12.87Z"/><path class="cls-6" d="M271.87,478.51,275.23,449l8.61,0a3.53,3.53,0,0,1,3,2,8.46,8.46,0,0,1,1.2,4.68L288,459a7.82,7.82,0,0,1-1.47,4.66,4.18,4.18,0,0,1-3.46,1.9l-4.84-.08q-.54,6.58-1.07,13.18Zm6.58-16.31,2.37,0a2.12,2.12,0,0,0,1.72-1,4,4,0,0,0,.81-2.33c.06-1.11.11-2.21.17-3.32a4,4,0,0,0-.55-2.32,1.76,1.76,0,0,0-1.5-1h-2.21Z"/><path class="cls-6" d="M297,449h4.32a4.09,4.09,0,0,1,3.23,2,9.64,9.64,0,0,1,1.81,4.78q.94,8.49,1.88,17a6.78,6.78,0,0,1-1,4.73,3.89,3.89,0,0,1-3.49,1.91l-5.28-.14a4.88,4.88,0,0,1-3.75-2.08,7.67,7.67,0,0,1-1.61-4.75q-.13-8.37-.28-16.74A8.35,8.35,0,0,1,294,451,3.52,3.52,0,0,1,297,449Zm.33,6.72q.4,8.4.82,16.82a4,4,0,0,0,.86,2.37,2.48,2.48,0,0,0,1.88,1,2,2,0,0,0,1.76-.95,3.55,3.55,0,0,0,.56-2.35l-1.35-16.91a4.55,4.55,0,0,0-.85-2.37,2.05,2.05,0,0,0-1.63-1,1.75,1.75,0,0,0-1.51,1A4.09,4.09,0,0,0,297.3,455.71Z"/><path class="cls-6" d="M310.13,449h4.3q2.37,13.71,4.75,27.43l2.58.05a1.71,1.71,0,0,0,1.63-1,3.53,3.53,0,0,0,.26-2.4q-2.46-12.06-4.91-24.14l4.29,0,6.45,27.7,2.59,0a1.59,1.59,0,0,0,1.54-1,3.52,3.52,0,0,0,.11-2.42l-6.39-24.37,4.31,0,5.69,19.52c.95,3.26.94,6-.14,8.37a5.39,5.39,0,0,1-5.36,3.39l-6.78-.16-.23-1.1a5.16,5.16,0,0,1-3.51,1l-6.78-.18Q312.33,464.32,310.13,449Z"/><path class="cls-6" d="M346.38,480.4q-5.1-15.81-10.19-31.62l8.61-.11c1.17,0,2.45.66,3.87,2.05a14.74,14.74,0,0,1,3.32,5l7.26,17.82a7.3,7.3,0,0,1,.51,5,2.73,2.73,0,0,1-2.86,2.06C353.39,480.52,349.88,480.47,346.38,480.4Zm4-3.45,2.58,0a1.4,1.4,0,0,0,1.44-1,3.62,3.62,0,0,0-.19-2.47q-3.36-8.87-6.73-17.74a6.72,6.72,0,0,0-1.6-2.48,2.85,2.85,0,0,0-1.94-1l-2.21,0Q346.05,464.62,350.38,477Z"/><path class="cls-6" d="M367.71,480.7l-14.07-32.19c3.58-.08,7.17-.16,10.75-.26l1.83,3.62c-2.2.06-4.41.1-6.61.15l5,10.77,4.74-.05c.58,1.2,1.17,2.39,1.76,3.59l-4.85,0,5,10.77,7.72,0,1.84,3.62Q374.27,480.76,367.71,480.7Z"/><path class="cls-6" d="M386.42,480.77,369,448.12l8.61-.3c1.17,0,2.61.64,4.34,2.05a20.19,20.19,0,0,1,4.46,5.11l1.23,2a12.17,12.17,0,0,1,1.83,4.77c.21,1.54-.56,2.32-2.28,2.36l2.38-.05a4,4,0,0,1,2.35,1,9.86,9.86,0,0,1,2.31,2.58l8,13-5.25.05q-3.22-5.48-6.46-11a9.11,9.11,0,0,0-2.24-2.58,4,4,0,0,0-2.34-1.05l-2.42.05,8.19,14.58Zm-5-18.21,2.37-.05c.64,0,1-.39,1-1.13a4.83,4.83,0,0,0-.82-2.59l-2.16-3.67a9.71,9.71,0,0,0-2.17-2.54,3.59,3.59,0,0,0-2.18-1l-2.21.07Z"/><polygon class="cls-6" points="289.37 490.02 293.3 498 302.11 499.28 295.74 505.49 297.24 514.25 289.37 510.12 281.5 514.25 283 505.49 276.63 499.28 285.43 498 289.37 490.02"/></g></g></svg>